HIERARCHY
ROOT Hips
{
	OFFSET 0.000000 0.000000 0.000000 
	CHANNELS 6 Xposition Yposition Zposition Zrotation Yrotation Xrotation
	JOINT LeftUpLeg
	{
		OFFSET 1.363060 -1.794630 0.839290 
		CHANNELS 3 Zrotation Yrotation Xrotation
		JOINT LeftLeg
		{
			OFFSET 2.448110 -6.726130 0.000000 
			CHANNELS 3 Zrotation Yrotation Xrotation
			JOINT LeftFoot
			{
				OFFSET 2.562200 -7.039590 0.000000 
				CHANNELS 3 Zrotation Yrotation Xrotation
				JOINT LeftToeBase
				{
					OFFSET 0.157640 -0.433110 2.322550 
					CHANNELS 3 Zrotation Yrotation Xrotation
					End Site
					{
						OFFSET 0.000000 0.000000 0.000000 
					}
				}
			}
		}
	}
	JOINT RightUpLeg
	{
		OFFSET -1.305520 -1.794630 0.839290 
		CHANNELS 3 Zrotation Yrotation Xrotation
		JOINT RightLeg
		{
			OFFSET -2.542530 -6.985550 0.000000 
			CHANNELS 3 Zrotation Yrotation Xrotation
			JOINT RightFoot
			{
				OFFSET -2.568260 -7.056230 0.000000 
				CHANNELS 3 Zrotation Yrotation Xrotation
				JOINT RightToeBase
				{
					OFFSET -0.164730 -0.452590 2.363150 
					CHANNELS 3 Zrotation Yrotation Xrotation
					End Site
					{
						OFFSET 0.000000 0.000000 0.000000 
					}
				}
			}
		}
	}
	JOINT Spine
	{
		OFFSET 0.028270 2.035590 -0.193380 
		CHANNELS 3 Zrotation Yrotation Xrotation
		JOINT Spine1
		{
			OFFSET 0.056720 2.048850 -0.042750 
			CHANNELS 3 Zrotation Yrotation Xrotation
			JOINT Neck1
			{
				OFFSET -0.054170 1.746240 0.172020 
				CHANNELS 3 Zrotation Yrotation Xrotation
				JOINT Head
				{
					OFFSET 0.104070 1.761360 -0.123970 
					CHANNELS 3 Zrotation Yrotation Xrotation
					End Site
					{
						OFFSET 0.000000 0.000000 0.000000 
					}
				}
			}
			JOINT LeftArm
			{
				OFFSET 3.362410 1.200890 -0.311210 
				CHANNELS 3 Zrotation Yrotation Xrotation
				JOINT LeftForeArm
				{
					OFFSET 4.983000 -0.000000 -0.000000 
					CHANNELS 3 Zrotation Yrotation Xrotation
					JOINT LeftHand
					{
						OFFSET 3.483560 -0.000000 -0.000000 
						CHANNELS 3 Zrotation Yrotation Xrotation
						JOINT LeftHandIndex1
						{
							OFFSET 0.715260 -0.000000 -0.000000 
							CHANNELS 3 Zrotation Yrotation Xrotation
							End Site
							{
								OFFSET 0.000000 0.000000 0.000000 
							}
						}
					}
				}
			}
			JOINT RightArm
			{
				OFFSET -3.136600 1.374050 -0.404650 
				CHANNELS 3 Zrotation Yrotation Xrotation
				JOINT RightForeArm
				{
					OFFSET -5.241900 -0.000000 -0.000000 
					CHANNELS 3 Zrotation Yrotation Xrotation
					JOINT RightHand
					{
						OFFSET -3.444170 -0.000000 -0.000000 
						CHANNELS 3 Zrotation Yrotation Xrotation
						JOINT RightHandIndex1
						{
							OFFSET -0.622530 -0.000000 -0.000000 
							CHANNELS 3 Zrotation Yrotation Xrotation
							End Site
							{
								OFFSET 0.000000 0.000000 0.000000 
							}
						}
					}
				}
			}
		}
	}
}
MOTION
Frames: 10
Frame Time: 0.041667
8.984103 16.202368 24.179021 -23.281231 -74.395810 38.135966 -24.797468 -6.199904 -42.559424 8.160184 25.485579 64.291603 -0.333931 2.764120 -0.315478 2.098100 -9.067400 -26.006500 43.823704 16.086459 -28.002402 1.251992 -19.855810 39.391850 1.700830 -10.027933 -11.438973 -0.672000 -5.242200 14.600700 2.566739 -2.890828 -5.941011 -3.703256 -1.526249 -0.517104 3.173886 4.833304 16.428363 -0.875700 2.105700 14.304300 -86.157705 27.233544 6.686481 71.255350 -55.034546 -53.300689 1.508862 -2.626343 -20.354057 -7.125000 0.000000 0.000000 74.634492 -25.615559 8.998834 -133.714612 46.755187 -100.504059 -2.064319 2.123849 28.841381 7.125000 0.000000 0.000000 
8.986410 16.192590 24.181438 -23.709568 -74.467667 38.552113 -24.858583 -6.773653 -42.128727 7.888917 25.437327 63.674588 -0.234912 2.526366 -0.803945 2.087000 -9.045100 -25.936400 43.909238 16.148187 -28.036475 1.221893 -19.904353 39.511610 1.677970 -9.953152 -11.461064 -0.669000 -5.230700 14.567800 2.570151 -2.897259 -5.932113 -3.757223 -1.532702 -0.547742 3.151418 4.872400 16.334522 -0.906600 2.134800 14.229500 -86.036857 27.002677 8.412958 68.302076 -54.024789 -50.355327 1.389147 -2.548700 -20.672496 -7.125000 0.000000 0.000000 74.627733 -25.663821 10.386420 -132.296809 47.526124 -99.522261 -2.009023 2.106857 29.016402 7.125000 0.000000 0.000000 
8.989597 16.183251 24.183855 -24.144412 -74.521692 38.974184 -24.897969 -7.374931 -41.714832 7.635385 25.396914 63.099078 -0.124027 2.249588 -1.277211 2.068600 -9.007600 -25.819200 44.004551 16.200565 -28.065298 1.196118 -19.946795 39.615261 1.660485 -9.894674 -11.469352 -0.661500 -5.201700 14.484600 2.572577 -2.913809 -5.920875 -3.840448 -1.544750 -0.566116 3.137885 4.913545 16.238256 -0.934700 2.167700 14.158600 -85.907729 26.732604 9.975386 65.458668 -53.038287 -47.476242 1.275402 -2.461533 -20.848621 -7.125000 0.000000 0.000000 74.589471 -25.666387 11.742654 -130.776272 48.304512 -98.453634 -1.953682 2.085785 29.133486 7.125000 0.000000 0.000000 
8.993332 16.174462 24.186052 -24.583503 -74.560675 39.402063 -24.915679 -8.004219 -41.318095 7.396272 25.363879 62.556932 -0.002565 1.938153 -1.736728 2.043200 -8.955500 -25.656100 44.108231 16.249969 -28.089350 1.174957 -19.983610 39.703051 1.647836 -9.852082 -11.468351 -0.649900 -5.156800 14.356300 2.578240 -2.942271 -5.908487 -3.925078 -1.561365 -0.575109 3.130359 4.958208 16.137560 -0.958700 2.202100 14.089500 -85.794812 26.425779 11.388191 62.717247 -52.073544 -44.679520 1.165901 -2.365057 -20.929185 -7.125000 0.000000 0.000000 74.495667 -25.624042 13.065765 -129.146127 49.083392 -97.291946 -1.897410 2.061813 29.183558 7.125000 0.000000 0.000000 
8.997507 16.166662 24.188579 -25.012047 -74.593359 39.830700 -24.918324 -8.664257 -40.943318 7.167603 25.338391 62.038099 0.124471 1.608565 -2.184472 2.012100 -8.891300 -25.456000 44.208401 16.277320 -28.121511 1.157684 -20.015086 39.776274 1.631949 -9.794808 -11.452346 -0.638400 -5.111900 14.227900 2.587213 -2.980911 -5.894528 -4.006115 -1.580992 -0.566237 3.132412 5.007863 16.033364 -0.973100 2.237600 14.023200 -85.695548 26.081820 12.661634 60.067931 -51.124377 -41.973738 1.058299 -2.261734 -20.923010 -7.125000 0.000000 0.000000 74.346861 -25.531051 14.351471 -127.395671 49.858062 -96.028968 -1.837695 2.037660 29.186446 7.125000 0.000000 0.000000 
9.001682 16.159631 24.191326 -25.449732 -74.622236 40.275755 -24.905938 -9.348000 -40.588716 6.948285 25.318657 61.538805 0.254777 1.266995 -2.611231 1.978200 -8.820500 -25.235500 44.310915 16.266006 -28.161200 1.143450 -20.040743 39.837478 1.608720 -9.707954 -11.419534 -0.626800 -5.066200 14.097400 2.597917 -3.026283 -5.879579 -4.090367 -1.602494 -0.545321 3.140851 5.058519 15.927671 -0.983200 2.273700 13.959800 -85.602400 25.709902 13.819514 57.514320 -50.186453 -39.375796 0.951013 -2.153940 -20.856432 -7.125000 0.000000 0.000000 74.167644 -25.394922 15.589278 -125.522121 50.619153 -94.660241 -1.774864 2.013063 29.172608 7.125000 0.000000 0.000000 
9.005527 16.153478 24.194072 -25.896882 -74.652805 40.739393 -24.878426 -10.051883 -40.253752 6.736559 25.303701 61.055125 0.390197 0.906679 -3.018461 1.935800 -8.731000 -24.957500 44.412527 16.216476 -28.209947 1.131855 -20.061042 39.888043 1.574434 -9.578912 -11.372270 -0.618500 -5.033100 14.002900 2.609852 -3.073385 -5.863842 -4.173090 -1.623351 -0.512185 3.154917 5.108072 15.821426 -0.988600 2.309000 13.898200 -85.515238 25.316849 14.876681 55.070576 -49.260128 -36.909052 0.843156 -2.045479 -20.753839 -7.125000 0.000000 0.000000 73.971005 -25.221537 16.778264 -123.523578 51.357032 -93.181268 -1.710385 1.986623 29.175247 7.125000 0.000000 0.000000 
9.009152 16.147546 24.196709 -26.360052 -74.679381 41.223265 -24.835929 -10.766019 -39.937902 6.533643 25.292394 60.589045 0.534621 0.511951 -3.397549 1.878800 -8.608900 -24.579400 44.517316 16.212997 -28.248250 1.125694 -20.079579 39.924686 1.545445 -9.474085 -11.350720 -0.618000 -5.031100 13.997400 2.622099 -3.121345 -5.847429 -4.260213 -1.643932 -0.472142 3.170019 5.156536 15.714745 -0.995100 2.344400 13.839300 -85.436497 24.907624 15.838479 52.739047 -48.341459 -34.580646 0.734018 -1.939496 -20.616595 -7.125000 0.000000 0.000000 73.777223 -25.018381 17.914411 -121.402345 52.059231 -91.592586 -1.642988 1.960445 29.203229 7.125000 0.000000 0.000000 
9.012338 16.141613 24.199126 -26.856591 -74.704831 41.747664 -24.775814 -11.481576 -39.643227 6.339069 25.283425 60.138535 0.687365 0.083960 -3.747539 1.816900 -8.473800 -24.162800 44.626833 16.262717 -28.281019 1.123718 -20.099237 39.952225 1.523540 -9.399120 -11.347696 -0.620400 -5.040500 14.024200 2.632203 -3.161256 -5.829868 -4.356175 -1.660445 -0.421891 3.194117 5.191110 15.607543 -0.996700 2.374600 13.780700 -85.357194 24.485325 16.720034 50.532734 -47.432820 -32.404662 0.624132 -1.839376 -20.460419 -7.125000 0.000000 0.000000 73.604490 -24.792664 18.991214 -119.166307 52.714637 -89.893530 -1.578200 1.929216 29.254040 7.125000 0.000000 0.000000 
9.015634 16.135461 24.200774 -27.348860 -74.729851 42.275651 -24.709308 -12.193472 -39.370363 6.151364 25.276215 59.701054 0.849590 -0.383892 -4.063158 1.752300 -8.329800 -23.720400 44.729486 16.396546 -28.308518 1.125143 -20.123616 39.975237 1.514425 -9.377156 -11.376160 -0.627000 -5.066800 14.099300 2.636503 -3.189234 -5.811504 -4.471014 -1.672002 -0.366194 3.226909 5.204214 15.498142 -0.996900 2.397700 13.722400 -85.263574 24.052600 17.536835 48.452026 -46.532253 -30.379147 0.513899 -1.745506 -20.313411 -7.125000 0.000000 0.000000 73.473167 -24.554284 20.011282 -116.827463 53.309595 -88.091985 -1.515448 1.894152 29.309794 7.125000 0.000000 0.000000 
